<svg xmlns="http://www.w3.org/2000/svg" viewBox="0 0 64 64" fill="none">
  <defs>
    <linearGradient id="wGrad64" x1="0%" y1="0%" x2="0%" y2="100%">
      <stop offset="0%" stop-color="#C5CDD4"/>
      <stop offset="15%" stop-color="#ADB5BD"/>
      <stop offset="50%" stop-color="#8B9299"/>
      <stop offset="85%" stop-color="#6B7278"/>
      <stop offset="100%" stop-color="#5B6269"/>
    </linearGradient>
    
    <linearGradient id="metalShine64" x1="0%" y1="0%" x2="100%" y2="100%">
      <stop offset="0%" stop-color="white" stop-opacity="0.5"/>
      <stop offset="50%" stop-color="white" stop-opacity="0"/>
      <stop offset="100%" stop-color="white" stop-opacity="0.3"/>
    </linearGradient>
    
    <radialGradient id="blueGlass64" cx="32%" cy="32%">
      <stop offset="0%" stop-color="#D4E8F5"/>
      <stop offset="20%" stop-color="#A3D0E8"/>
      <stop offset="50%" stop-color="#6BA5CD"/>
      <stop offset="80%" stop-color="#2D5F7F"/>
      <stop offset="100%" stop-color="#1A3A4D"/>
    </radialGradient>
    
    <radialGradient id="glassHL64" cx="28%" cy="28%">
      <stop offset="0%" stop-color="white" stop-opacity="1"/>
      <stop offset="40%" stop-color="white" stop-opacity="0.5"/>
      <stop offset="100%" stop-color="white" stop-opacity="0"/>
    </radialGradient>
    
    <filter id="shadow64">
      <feGaussianBlur in="SourceAlpha" stdDeviation="2"/>
      <feOffset dx="2" dy="3"/>
      <feComponentTransfer>
        <feFuncA type="linear" slope="0.4"/>
      </feComponentTransfer>
      <feMerge>
        <feMergeNode/>
        <feMergeNode in="SourceGraphic"/>
      </feMerge>
    </filter>
  </defs>

  <g transform="translate(7, 7) scale(0.5)">
    <ellipse cx="50" cy="95" rx="35" ry="3" fill="rgba(0,0,0,0.15)"/>
    
    <path d="M10,35 L20,35 L35,80 L45,50 L55,50 L65,80 L80,20 L90,20 L70,95 L60,95 L50,65 L40,95 L30,95 Z" 
          fill="rgba(0,0,0,0.25)" 
          transform="translate(2, 4)"/>
    
    <path d="M10,35 L20,35 L35,80 L45,50 L55,50 L65,80 L80,20 L90,20 L70,95 L60,95 L50,65 L40,95 L30,95 Z" 
          fill="url(#wGrad64)"/>
    
    <path d="M10,35 L20,35 L35,80 L45,50 L55,50 L65,80 L80,20 L90,20 L70,95 L60,95 L50,65 L40,95 L30,95 Z" 
          fill="url(#metalShine64)"/>
    
    <path d="M11,36 L19.5,36 L33,77 L44,51 L54,51 L63,77 L78.5,21 L89,21" 
          fill="none" 
          stroke="white" 
          stroke-width="3" 
          stroke-linecap="round" 
          opacity="0.6"/>
    
    <ellipse cx="86" cy="18" rx="7" ry="2.5" fill="rgba(0,0,0,0.35)"/>
    <ellipse cx="85" cy="16.5" rx="5" ry="1.5" fill="rgba(0,0,0,0.45)"/>
    
    <circle cx="85" cy="12" r="8" fill="url(#blueGlass64)" filter="url(#shadow64)"/>
    <circle cx="85" cy="12" r="8" fill="url(#glassHL64)"/>
    
    <ellipse cx="82.5" cy="9.5" rx="3.5" ry="3" fill="white" opacity="0.9"/>
    <circle cx="81.5" cy="9" r="1.5" fill="white" opacity="1"/>
  </g>
</svg>
