<svg xmlns="http://www.w3.org/2000/svg" viewBox="0 0 48 48" fill="none">
  <defs>
    <linearGradient id="bg48" x1="0%" y1="0%" x2="100%" y2="100%">
      <stop offset="0%" stop-color="#4A4A4A"/>
      <stop offset="100%" stop-color="#2A2A2A"/>
    </linearGradient>
    
    <linearGradient id="wGrad48" x1="0%" y1="0%" x2="0%" y2="100%">
      <stop offset="0%" stop-color="#C5CDD4"/>
      <stop offset="50%" stop-color="#8B9299"/>
      <stop offset="100%" stop-color="#5B6269"/>
    </linearGradient>
    
    <radialGradient id="blueGlass48" cx="32%" cy="32%">
      <stop offset="0%" stop-color="#D4E8F5"/>
      <stop offset="30%" stop-color="#6BA5CD"/>
      <stop offset="100%" stop-color="#1A3A4D"/>
    </radialGradient>
  </defs>

  <!-- 背景 -->
  <rect width="48" height="48" rx="10" fill="url(#bg48)"/>

  <!-- 简化的W + 球 -->
  <g transform="translate(9, 9) scale(0.3)">
    <path d="M10,35 L20,35 L35,80 L45,50 L55,50 L65,80 L80,20 L90,20 L70,95 L60,95 L50,65 L40,95 L30,95 Z" 
          fill="url(#wGrad48)"/>
    
    <path d="M11,36 L19.5,36 L33,77 L44,51 L54,51 L63,77 L78.5,21 L89,21" 
          fill="none" 
          stroke="white" 
          stroke-width="3" 
          stroke-linecap="round" 
          opacity="0.6"/>
    
    <circle cx="85" cy="12" r="8" fill="url(#blueGlass48)"/>
    <ellipse cx="82.5" cy="9.5" rx="3.5" ry="3" fill="white" opacity="0.9"/>
    <circle cx="81.5" cy="9" r="1.5" fill="white"/>
  </g>
</svg>
