<svg xmlns="http://www.w3.org/2000/svg" viewBox="0 0 32 32" fill="none">
  <defs>
    <linearGradient id="bgFav" x1="0%" y1="0%" x2="100%" y2="100%">
      <stop offset="0%" stop-color="#4A4A4A"/>
      <stop offset="100%" stop-color="#2A2A2A"/>
    </linearGradient>
    
    <linearGradient id="wGradFav" x1="0%" y1="0%" x2="0%" y2="100%">
      <stop offset="0%" stop-color="#C5CDD4"/>
      <stop offset="50%" stop-color="#8B9299"/>
      <stop offset="100%" stop-color="#5B6269"/>
    </linearGradient>
    
    <radialGradient id="blueGlassFav" cx="32%" cy="32%">
      <stop offset="0%" stop-color="#D4E8F5"/>
      <stop offset="40%" stop-color="#6BA5CD"/>
      <stop offset="100%" stop-color="#1A3A4D"/>
    </radialGradient>
  </defs>

  <rect width="32" height="32" rx="7" fill="url(#bgFav)"/>

  <g transform="translate(6, 6) scale(0.2)">
    <path d="M10,35 L20,35 L35,80 L45,50 L55,50 L65,80 L80,20 L90,20 L70,95 L60,95 L50,65 L40,95 L30,95 Z" 
          fill="url(#wGradFav)"/>
    
    <path d="M11,36 L19.5,36 L33,77 L44,51 L54,51 L63,77 L78.5,21 L89,21" 
          fill="none" 
          stroke="white" 
          stroke-width="4" 
          stroke-linecap="round" 
          opacity="0.7"/>
    
    <circle cx="85" cy="12" r="8" fill="url(#blueGlassFav)"/>
    <circle cx="82" cy="9" r="2.5" fill="white" opacity="0.9"/>
  </g>
</svg>
